<svg xmlns="http://www.w3.org/2000/svg" viewBox="0 0 64 64">
<g transform="scale(2.6666666667)">
<rect x="6" y="9" width="1" height="1" fill="rgb(153,7,0)" opacity="1.0000"/>
<rect x="18" y="12" width="1" height="1" fill="rgb(153,7,0)" opacity="1.0000"/>
<rect x="13" y="11" width="1" height="1" fill="rgb(165,98,96)" opacity="1.0000"/>
<rect x="7" y="15" width="1" height="1" fill="rgb(165,98,96)" opacity="1.0000"/>
<rect x="10" y="3" width="1" height="1" fill="rgb(188,188,188)" opacity="1.0000"/>
<rect x="15" y="4" width="1" height="1" fill="rgb(188,188,188)" opacity="1.0000"/>
<rect x="7" y="5" width="2" height="1" fill="rgb(188,188,188)" opacity="1.0000"/>
<rect x="18" y="5" width="1" height="1" fill="rgb(188,188,188)" opacity="1.0000"/>
<rect x="12" y="6" width="1" height="1" fill="rgb(188,188,188)" opacity="1.0000"/>
<rect x="17" y="7" width="2" height="1" fill="rgb(188,188,188)" opacity="1.0000"/>
<rect x="8" y="10" width="1" height="1" fill="rgb(188,188,188)" opacity="1.0000"/>
<rect x="15" y="12" width="2" height="1" fill="rgb(188,188,188)" opacity="1.0000"/>
<rect x="5" y="13" width="1" height="1" fill="rgb(188,188,188)" opacity="1.0000"/>
<rect x="5" y="15" width="2" height="1" fill="rgb(188,188,188)" opacity="1.0000"/>
<rect x="17" y="15" width="1" height="1" fill="rgb(188,188,188)" opacity="1.0000"/>
<rect x="4" y="16" width="1" height="1" fill="rgb(188,188,188)" opacity="1.0000"/>
<rect x="4" y="17" width="1" height="1" fill="rgb(188,188,188)" opacity="1.0000"/>
<rect x="12" y="17" width="2" height="1" fill="rgb(188,188,188)" opacity="1.0000"/>
<rect x="5" y="18" width="4" height="1" fill="rgb(188,188,188)" opacity="1.0000"/>
<rect x="14" y="18" width="3" height="1" fill="rgb(188,188,188)" opacity="1.0000"/>
<rect x="9" y="19" width="4" height="1" fill="rgb(188,188,188)" opacity="1.0000"/>
<rect x="13" y="20" width="3" height="1" fill="rgb(188,188,188)" opacity="1.0000"/>
<rect x="11" y="6" width="1" height="1" fill="rgb(216,208,208)" opacity="1.0000"/>
<rect x="13" y="6" width="1" height="1" fill="rgb(216,208,208)" opacity="1.0000"/>
<rect x="9" y="7" width="1" height="1" fill="rgb(216,208,208)" opacity="1.0000"/>
<rect x="14" y="7" width="1" height="1" fill="rgb(216,208,208)" opacity="1.0000"/>
<rect x="8" y="8" width="1" height="1" fill="rgb(216,208,208)" opacity="1.0000"/>
<rect x="15" y="8" width="1" height="1" fill="rgb(216,208,208)" opacity="1.0000"/>
<rect x="7" y="10" width="1" height="1" fill="rgb(216,208,208)" opacity="1.0000"/>
<rect x="10" y="10" width="1" height="1" fill="rgb(216,208,208)" opacity="1.0000"/>
<rect x="16" y="10" width="1" height="1" fill="rgb(216,208,208)" opacity="1.0000"/>
<rect x="11" y="12" width="1" height="1" fill="rgb(216,208,208)" opacity="1.0000"/>
<rect x="14" y="12" width="1" height="1" fill="rgb(216,208,208)" opacity="1.0000"/>
<rect x="6" y="14" width="1" height="1" fill="rgb(216,208,208)" opacity="1.0000"/>
<rect x="12" y="14" width="1" height="1" fill="rgb(216,208,208)" opacity="1.0000"/>
<rect x="17" y="14" width="1" height="1" fill="rgb(216,208,208)" opacity="1.0000"/>
<rect x="16" y="15" width="1" height="1" fill="rgb(216,208,208)" opacity="1.0000"/>
<rect x="9" y="16" width="1" height="1" fill="rgb(216,208,208)" opacity="1.0000"/>
<rect x="15" y="16" width="1" height="1" fill="rgb(216,208,208)" opacity="1.0000"/>
<rect x="9" y="5" width="4" height="1" fill="rgb(219,14,0)" opacity="1.0000"/>
<rect x="8" y="6" width="3" height="1" fill="rgb(219,14,0)" opacity="1.0000"/>
<rect x="14" y="6" width="2" height="1" fill="rgb(219,14,0)" opacity="1.0000"/>
<rect x="7" y="7" width="2" height="1" fill="rgb(219,14,0)" opacity="1.0000"/>
<rect x="15" y="7" width="2" height="1" fill="rgb(219,14,0)" opacity="1.0000"/>
<rect x="7" y="8" width="1" height="1" fill="rgb(219,14,0)" opacity="1.0000"/>
<rect x="10" y="8" width="2" height="1" fill="rgb(219,14,0)" opacity="1.0000"/>
<rect x="16" y="8" width="2" height="1" fill="rgb(219,14,0)" opacity="1.0000"/>
<rect x="7" y="9" width="1" height="1" fill="rgb(219,14,0)" opacity="1.0000"/>
<rect x="9" y="9" width="4" height="1" fill="rgb(219,14,0)" opacity="1.0000"/>
<rect x="14" y="9" width="1" height="1" fill="rgb(219,14,0)" opacity="1.0000"/>
<rect x="16" y="9" width="2" height="1" fill="rgb(219,14,0)" opacity="1.0000"/>
<rect x="6" y="10" width="1" height="1" fill="rgb(219,14,0)" opacity="1.0000"/>
<rect x="9" y="10" width="1" height="1" fill="rgb(219,14,0)" opacity="1.0000"/>
<rect x="11" y="10" width="5" height="1" fill="rgb(219,14,0)" opacity="1.0000"/>
<rect x="17" y="10" width="2" height="1" fill="rgb(219,14,0)" opacity="1.0000"/>
<rect x="6" y="11" width="1" height="1" fill="rgb(219,14,0)" opacity="1.0000"/>
<rect x="8" y="11" width="5" height="1" fill="rgb(219,14,0)" opacity="1.0000"/>
<rect x="14" y="11" width="1" height="1" fill="rgb(219,14,0)" opacity="1.0000"/>
<rect x="17" y="11" width="2" height="1" fill="rgb(219,14,0)" opacity="1.0000"/>
<rect x="6" y="12" width="1" height="1" fill="rgb(219,14,0)" opacity="1.0000"/>
<rect x="8" y="12" width="1" height="1" fill="rgb(219,14,0)" opacity="1.0000"/>
<rect x="12" y="12" width="1" height="1" fill="rgb(219,14,0)" opacity="1.0000"/>
<rect x="17" y="12" width="1" height="1" fill="rgb(219,14,0)" opacity="1.0000"/>
<rect x="6" y="13" width="2" height="1" fill="rgb(219,14,0)" opacity="1.0000"/>
<rect x="12" y="13" width="1" height="1" fill="rgb(219,14,0)" opacity="1.0000"/>
<rect x="16" y="13" width="2" height="1" fill="rgb(219,14,0)" opacity="1.0000"/>
<rect x="7" y="14" width="3" height="1" fill="rgb(219,14,0)" opacity="1.0000"/>
<rect x="15" y="14" width="2" height="1" fill="rgb(219,14,0)" opacity="1.0000"/>
<rect x="8" y="15" width="8" height="1" fill="rgb(219,14,0)" opacity="1.0000"/>
<rect x="10" y="16" width="5" height="1" fill="rgb(219,14,0)" opacity="1.0000"/>
<rect x="7" y="3" width="3" height="1" fill="rgb(242,242,242)" opacity="1.0000"/>
<rect x="7" y="4" width="8" height="1" fill="rgb(242,242,242)" opacity="1.0000"/>
<rect x="13" y="5" width="5" height="1" fill="rgb(242,242,242)" opacity="1.0000"/>
<rect x="7" y="6" width="1" height="1" fill="rgb(242,242,242)" opacity="1.0000"/>
<rect x="16" y="6" width="3" height="1" fill="rgb(242,242,242)" opacity="1.0000"/>
<rect x="10" y="7" width="4" height="1" fill="rgb(242,242,242)" opacity="1.0000"/>
<rect x="9" y="8" width="1" height="1" fill="rgb(242,242,242)" opacity="1.0000"/>
<rect x="12" y="8" width="3" height="1" fill="rgb(242,242,242)" opacity="1.0000"/>
<rect x="18" y="8" width="1" height="1" fill="rgb(242,242,242)" opacity="1.0000"/>
<rect x="8" y="9" width="1" height="1" fill="rgb(242,242,242)" opacity="1.0000"/>
<rect x="13" y="9" width="1" height="1" fill="rgb(242,242,242)" opacity="1.0000"/>
<rect x="15" y="9" width="1" height="1" fill="rgb(242,242,242)" opacity="1.0000"/>
<rect x="18" y="9" width="1" height="1" fill="rgb(242,242,242)" opacity="1.0000"/>
<rect x="7" y="11" width="1" height="1" fill="rgb(242,242,242)" opacity="1.0000"/>
<rect x="15" y="11" width="2" height="1" fill="rgb(242,242,242)" opacity="1.0000"/>
<rect x="7" y="12" width="1" height="1" fill="rgb(242,242,242)" opacity="1.0000"/>
<rect x="9" y="12" width="2" height="1" fill="rgb(242,242,242)" opacity="1.0000"/>
<rect x="13" y="12" width="1" height="1" fill="rgb(242,242,242)" opacity="1.0000"/>
<rect x="8" y="13" width="4" height="1" fill="rgb(242,242,242)" opacity="1.0000"/>
<rect x="13" y="13" width="3" height="1" fill="rgb(242,242,242)" opacity="1.0000"/>
<rect x="5" y="14" width="1" height="1" fill="rgb(242,242,242)" opacity="1.0000"/>
<rect x="10" y="14" width="2" height="1" fill="rgb(242,242,242)" opacity="1.0000"/>
<rect x="13" y="14" width="2" height="1" fill="rgb(242,242,242)" opacity="1.0000"/>
<rect x="5" y="16" width="4" height="1" fill="rgb(242,242,242)" opacity="1.0000"/>
<rect x="16" y="16" width="1" height="1" fill="rgb(242,242,242)" opacity="1.0000"/>
<rect x="5" y="17" width="7" height="1" fill="rgb(242,242,242)" opacity="1.0000"/>
<rect x="14" y="17" width="3" height="1" fill="rgb(242,242,242)" opacity="1.0000"/>
<rect x="9" y="18" width="5" height="1" fill="rgb(242,242,242)" opacity="1.0000"/>
<rect x="13" y="19" width="3" height="1" fill="rgb(242,242,242)" opacity="1.0000"/>
<rect x="6" y="1" width="5" height="1" fill="rgb(8,0,0)" opacity="1.0000"/>
<rect x="5" y="2" width="11" height="1" fill="rgb(8,0,0)" opacity="1.0000"/>
<rect x="5" y="3" width="2" height="1" fill="rgb(8,0,0)" opacity="1.0000"/>
<rect x="11" y="3" width="9" height="1" fill="rgb(8,0,0)" opacity="1.0000"/>
<rect x="5" y="4" width="2" height="1" fill="rgb(8,0,0)" opacity="1.0000"/>
<rect x="16" y="4" width="5" height="1" fill="rgb(8,0,0)" opacity="1.0000"/>
<rect x="5" y="5" width="2" height="1" fill="rgb(8,0,0)" opacity="1.0000"/>
<rect x="19" y="5" width="2" height="1" fill="rgb(8,0,0)" opacity="1.0000"/>
<rect x="5" y="6" width="2" height="1" fill="rgb(8,0,0)" opacity="1.0000"/>
<rect x="19" y="6" width="2" height="1" fill="rgb(8,0,0)" opacity="1.0000"/>
<rect x="5" y="7" width="2" height="1" fill="rgb(8,0,0)" opacity="1.0000"/>
<rect x="19" y="7" width="2" height="1" fill="rgb(8,0,0)" opacity="1.0000"/>
<rect x="5" y="8" width="2" height="1" fill="rgb(8,0,0)" opacity="1.0000"/>
<rect x="19" y="8" width="2" height="1" fill="rgb(8,0,0)" opacity="1.0000"/>
<rect x="4" y="9" width="2" height="1" fill="rgb(8,0,0)" opacity="1.0000"/>
<rect x="19" y="9" width="2" height="1" fill="rgb(8,0,0)" opacity="1.0000"/>
<rect x="4" y="10" width="2" height="1" fill="rgb(8,0,0)" opacity="1.0000"/>
<rect x="19" y="10" width="2" height="1" fill="rgb(8,0,0)" opacity="1.0000"/>
<rect x="4" y="11" width="2" height="1" fill="rgb(8,0,0)" opacity="1.0000"/>
<rect x="19" y="11" width="2" height="1" fill="rgb(8,0,0)" opacity="1.0000"/>
<rect x="4" y="12" width="2" height="1" fill="rgb(8,0,0)" opacity="1.0000"/>
<rect x="19" y="12" width="2" height="1" fill="rgb(8,0,0)" opacity="1.0000"/>
<rect x="3" y="13" width="2" height="1" fill="rgb(8,0,0)" opacity="1.0000"/>
<rect x="18" y="13" width="2" height="1" fill="rgb(8,0,0)" opacity="1.0000"/>
<rect x="3" y="14" width="2" height="1" fill="rgb(8,0,0)" opacity="1.0000"/>
<rect x="18" y="14" width="2" height="1" fill="rgb(8,0,0)" opacity="1.0000"/>
<rect x="3" y="15" width="2" height="1" fill="rgb(8,0,0)" opacity="1.0000"/>
<rect x="18" y="15" width="2" height="1" fill="rgb(8,0,0)" opacity="1.0000"/>
<rect x="2" y="16" width="2" height="1" fill="rgb(8,0,0)" opacity="1.0000"/>
<rect x="17" y="16" width="2" height="1" fill="rgb(8,0,0)" opacity="1.0000"/>
<rect x="2" y="17" width="2" height="1" fill="rgb(8,0,0)" opacity="1.0000"/>
<rect x="17" y="17" width="2" height="1" fill="rgb(8,0,0)" opacity="1.0000"/>
<rect x="3" y="18" width="2" height="1" fill="rgb(8,0,0)" opacity="1.0000"/>
<rect x="17" y="18" width="2" height="1" fill="rgb(8,0,0)" opacity="1.0000"/>
<rect x="4" y="19" width="5" height="1" fill="rgb(8,0,0)" opacity="1.0000"/>
<rect x="16" y="19" width="2" height="1" fill="rgb(8,0,0)" opacity="1.0000"/>
<rect x="5" y="20" width="8" height="1" fill="rgb(8,0,0)" opacity="1.0000"/>
<rect x="16" y="20" width="2" height="1" fill="rgb(8,0,0)" opacity="1.0000"/>
<rect x="9" y="21" width="8" height="1" fill="rgb(8,0,0)" opacity="1.0000"/>
<rect x="13" y="22" width="3" height="1" fill="rgb(8,0,0)" opacity="1.0000"/>
</g>
</svg>